<?xml version="1.0" encoding="UTF-8"?>
<!DOCTYPE svg PUBLIC "-//W3C//DTD SVG 1.1//EN" "http://www.w3.org/Graphics/SVG/1.1/DTD/svg11.dtd">
<!-- Creator: CorelDRAW X7 -->
<svg xmlns="http://www.w3.org/2000/svg" xml:space="preserve" width="0.166661in" height="0.166661in" version="1.1" style="shape-rendering:geometricPrecision; text-rendering:geometricPrecision; image-rendering:optimizeQuality; fill-rule:evenodd; clip-rule:evenodd"
viewBox="0 0 167 167"
 xmlns:xlink="http://www.w3.org/1999/xlink">
 <defs>
  <style type="text/css">
   <![CDATA[
    .fil0 {fill:#07A3BC}
    .fil2 {fill:#336699}
    .fil1 {fill:white;fill-rule:nonzero}
   ]]>
  </style>
 </defs>
 <g id="Layer_x0020_1">
  <metadata id="CorelCorpID_0Corel-Layer"/>
  <path class="fil0" d="M83 0c13,0 25,3 36,8 -4,4 -6,9 -6,15 0,11 9,20 20,20 7,0 14,-4 17,-10 10,14 17,32 17,50 0,46 -38,84 -84,84 -46,0 -83,-38 -83,-84 0,-46 37,-83 83,-83zm-38 54l0 2c1,-1 2,-1 3,-2 1,0 2,0 3,0 3,0 5,1 6,2 2,2 3,5 3,7 0,3 -1,6 -3,7 -1,2 -3,3 -6,3 -1,0 -2,0 -3,0 -1,-1 -2,-1 -3,-2l0 9 -4 0 0 -26 4 0zm5 4c-1,0 -2,0 -3,1 -1,1 -2,3 -2,4 0,2 1,3 2,4 1,1 2,2 3,2 2,0 3,-1 4,-2 1,-1 1,-2 1,-4 0,-1 0,-3 -1,-4 -1,-1 -2,-1 -4,-1zm33 7l-15 0c0,1 0,2 1,3 1,1 2,1 4,1 2,0 3,-1 4,-2l4 2c-1,1 -2,3 -3,3 -2,1 -3,1 -5,1 -3,0 -5,-1 -7,-3 -2,-1 -3,-4 -3,-6 0,-3 1,-6 3,-8 2,-1 4,-2 7,-2 3,0 5,1 7,2 2,2 3,5 3,8l0 1zm-5 -4c0,-1 -1,-2 -2,-2 -1,-1 -2,-1 -3,-1 -1,0 -3,0 -4,1 0,0 -1,1 -1,2l10 0zm8 -7l5 0 0 2c1,-1 2,-1 3,-2 1,0 2,0 3,0 1,0 3,0 4,2 1,1 2,2 2,4l0 13 -5 0 0 -8c0,-3 0,-4 0,-5 0,-1 -1,-1 -1,-2 -1,0 -1,0 -2,0 -1,0 -2,0 -2,1 -1,1 -1,1 -2,2 0,1 0,2 0,4l0 8 -5 0 0 -19zm35 0l5 0 0 19 -5 0 0 -2c-1,1 -2,1 -2,2 -1,0 -2,0 -3,0 -3,0 -5,-1 -7,-3 -2,-1 -2,-4 -2,-7 0,-2 0,-5 2,-7 2,-1 4,-2 6,-2 2,0 3,0 4,0 1,1 1,1 2,2l0 -2zm-5 4c-1,0 -2,0 -3,1 -1,1 -2,3 -2,4 0,2 1,3 2,4 1,1 2,2 3,2 2,0 3,-1 4,-2 1,-1 1,-2 1,-4 0,-1 0,-3 -1,-4 -1,-1 -2,-1 -4,-1zm-76 30l0 2c1,-1 2,-2 3,-2 1,-1 2,-1 3,-1 2,0 5,1 6,3 2,2 3,4 3,7 0,3 -1,5 -3,7 -2,2 -4,3 -6,3 -1,0 -2,-1 -3,-1 -1,0 -2,-1 -3,-2l0 9 -5 0 0 -25 5 0zm5 3c-1,0 -3,1 -4,2 -1,1 -1,2 -1,4 0,1 0,3 1,4 1,1 3,1 4,1 1,0 3,0 4,-1 1,-1 1,-3 1,-4 0,-2 0,-3 -1,-4 -1,-1 -2,-2 -4,-2zm32 7l-15 0c1,2 1,3 2,3 1,1 2,2 4,2 1,0 3,-1 4,-2l4 2c-1,1 -2,2 -3,3 -2,0 -3,1 -5,1 -3,0 -6,-1 -7,-3 -2,-2 -3,-4 -3,-7 0,-3 1,-5 3,-7 1,-2 4,-3 6,-3 3,0 6,1 8,3 1,2 2,4 2,7l0 1zm-4 -3c-1,-1 -1,-2 -2,-3 -1,-1 -2,-1 -3,-1 -2,0 -3,0 -4,1 0,1 -1,1 -1,3l10 0zm22 -15l5 0 0 26 -5 0 0 -2c-1,1 -2,2 -3,2 -1,0 -2,1 -3,1 -2,0 -4,-1 -6,-3 -2,-2 -3,-4 -3,-7 0,-3 1,-5 3,-7 2,-2 4,-3 6,-3 1,0 2,0 3,1 1,0 2,1 3,2l0 -10zm-5 11c-1,0 -3,1 -4,2 -1,1 -1,2 -1,4 0,1 0,3 1,4 1,1 3,1 4,1 1,0 3,0 4,-1 1,-1 1,-3 1,-4 0,-2 0,-3 -1,-4 -1,-1 -3,-2 -4,-2zm16 -11c1,0 2,0 2,1 1,0 1,1 1,2 0,1 0,1 -1,2 0,1 -1,1 -2,1 -1,0 -1,0 -2,-1 -1,-1 -1,-1 -1,-2 0,-1 0,-2 1,-2 1,-1 1,-1 2,-1zm-2 8l4 0 0 18 -4 0 0 -18zm23 0l4 0 0 18 -4 0 0 -2c-1,1 -2,2 -3,2 -1,0 -2,1 -3,1 -3,0 -5,-1 -6,-3 -2,-2 -3,-4 -3,-7 0,-3 1,-5 2,-7 2,-2 4,-3 7,-3 1,0 2,0 3,1 1,0 2,1 3,2l0 -2zm-5 3c-2,0 -3,1 -4,2 -1,1 -1,2 -1,4 0,1 0,3 1,4 1,1 2,1 4,1 1,0 2,0 3,-1 1,-1 2,-3 2,-4 0,-2 -1,-3 -2,-4 -1,-1 -2,-2 -3,-2z"/>
  <g id="_417529944">
   <g>
    <path class="fil1" d="M45 54l0 2c1,-1 2,-1 3,-2 1,0 2,0 3,0 3,0 5,1 6,2 2,2 3,5 3,7 0,3 -1,6 -3,7 -1,2 -3,3 -6,3 -1,0 -2,0 -3,0 -1,-1 -2,-1 -3,-2l0 9 -4 0 0 -26 4 0zm5 4c-1,0 -2,0 -3,1 -1,1 -2,3 -2,4 0,2 1,3 2,4 1,1 2,2 3,2 2,0 3,-1 4,-2 1,-1 1,-2 1,-4 0,-1 0,-3 -1,-4 -1,-1 -2,-1 -4,-1z"/>
    <path class="fil1" d="M83 65l-15 0c0,1 0,2 1,3 1,1 2,1 4,1 2,0 3,-1 4,-2l4 2c-1,1 -2,3 -3,3 -2,1 -3,1 -5,1 -3,0 -5,-1 -7,-3 -2,-1 -3,-4 -3,-6 0,-3 1,-6 3,-8 2,-1 4,-2 7,-2 3,0 5,1 7,2 2,2 3,5 3,8l0 1zm-5 -4c0,-1 -1,-2 -2,-2 -1,-1 -2,-1 -3,-1 -1,0 -3,0 -4,1 0,0 -1,1 -1,2l10 0z"/>
    <path class="fil1" d="M86 54l5 0 0 2c1,-1 2,-1 3,-2 1,0 2,0 3,0 1,0 3,0 4,2 1,1 2,2 2,4l0 13 -5 0 0 -8c0,-3 0,-4 0,-5 0,-1 -1,-1 -1,-2 -1,0 -1,0 -2,0 -1,0 -2,0 -2,1 -1,1 -1,1 -2,2 0,1 0,2 0,4l0 8 -5 0 0 -19z"/>
    <path class="fil1" d="M121 54l5 0 0 19 -5 0 0 -2c-1,1 -2,1 -2,2 -1,0 -2,0 -3,0 -3,0 -5,-1 -7,-3 -2,-1 -2,-4 -2,-7 0,-2 0,-5 2,-7 2,-1 4,-2 6,-2 2,0 3,0 4,0 1,1 1,1 2,2l0 -2zm-5 4c-1,0 -2,0 -3,1 -1,1 -2,3 -2,4 0,2 1,3 2,4 1,1 2,2 3,2 2,0 3,-1 4,-2 1,-1 1,-2 1,-4 0,-1 0,-3 -1,-4 -1,-1 -2,-1 -4,-1z"/>
   </g>
   <g>
    <path class="fil1" d="M40 88l0 2c1,-1 2,-2 3,-2 1,-1 2,-1 3,-1 2,0 5,1 6,3 2,2 3,4 3,7 0,3 -1,5 -3,7 -2,2 -4,3 -6,3 -1,0 -2,-1 -3,-1 -1,0 -2,-1 -3,-2l0 9 -5 0 0 -25 5 0zm5 3c-1,0 -3,1 -4,2 -1,1 -1,2 -1,4 0,1 0,3 1,4 1,1 3,1 4,1 1,0 3,0 4,-1 1,-1 1,-3 1,-4 0,-2 0,-3 -1,-4 -1,-1 -2,-2 -4,-2z"/>
    <path class="fil1" d="M77 98l-15 0c1,2 1,3 2,3 1,1 2,2 4,2 1,0 3,-1 4,-2l4 2c-1,1 -2,2 -3,3 -2,0 -3,1 -5,1 -3,0 -6,-1 -7,-3 -2,-2 -3,-4 -3,-7 0,-3 1,-5 3,-7 1,-2 4,-3 6,-3 3,0 6,1 8,3 1,2 2,4 2,7l0 1zm-4 -3c-1,-1 -1,-2 -2,-3 -1,-1 -2,-1 -3,-1 -2,0 -3,0 -4,1 0,1 -1,1 -1,3l10 0z"/>
    <path class="fil1" d="M95 80l5 0 0 26 -5 0 0 -2c-1,1 -2,2 -3,2 -1,0 -2,1 -3,1 -2,0 -4,-1 -6,-3 -2,-2 -3,-4 -3,-7 0,-3 1,-5 3,-7 2,-2 4,-3 6,-3 1,0 2,0 3,1 1,0 2,1 3,2l0 -10zm-5 11c-1,0 -3,1 -4,2 -1,1 -1,2 -1,4 0,1 0,3 1,4 1,1 3,1 4,1 1,0 3,0 4,-1 1,-1 1,-3 1,-4 0,-2 0,-3 -1,-4 -1,-1 -3,-2 -4,-2z"/>
    <path class="fil1" d="M106 80c1,0 2,0 2,1 1,0 1,1 1,2 0,1 0,1 -1,2 0,1 -1,1 -2,1 -1,0 -1,0 -2,-1 -1,-1 -1,-1 -1,-2 0,-1 0,-2 1,-2 1,-1 1,-1 2,-1zm-2 8l4 0 0 18 -4 0 0 -18z"/>
    <path class="fil1" d="M127 88l4 0 0 18 -4 0 0 -2c-1,1 -2,2 -3,2 -1,0 -2,1 -3,1 -3,0 -5,-1 -6,-3 -2,-2 -3,-4 -3,-7 0,-3 1,-5 2,-7 2,-2 4,-3 7,-3 1,0 2,0 3,1 1,0 2,1 3,2l0 -2zm-5 3c-2,0 -3,1 -4,2 -1,1 -1,2 -1,4 0,1 0,3 1,4 1,1 2,1 4,1 1,0 2,0 3,-1 1,-1 2,-3 2,-4 0,-2 -1,-3 -2,-4 -1,-1 -2,-2 -3,-2z"/>
   </g>
  </g>
  <circle class="fil2" cx="133" cy="23" r="13"/>
 </g>
</svg>
